<svg id="Layer_1" data-name="Layer 1" xmlns="http://www.w3.org/2000/svg" viewBox="0 0 150 150"><defs><style>.cls-1{fill:#006ad8;}</style></defs><title>imagenes e iconos</title><path id="Path_655" data-name="Path 655" class="cls-1" d="M110.25,91h0L106,86.75h0l-16-16,25.67-25.67a.24.24,0,0,0,.06-.08,3,3,0,0,0,.2-.29s.05-.08.07-.13,0,0,0,0,0,0,0,0l4.24-12.78a.88.88,0,0,0,0-.17,1.45,1.45,0,0,0,0-.3,1.53,1.53,0,0,0,0-.3.88.88,0,0,0,0-.17s0-.06-.06-.1a1.35,1.35,0,0,0-.15-.26,1.28,1.28,0,0,0-.17-.22,1.18,1.18,0,0,0-.22-.17,1.75,1.75,0,0,0-.27-.16l-.09-.05-.17,0a1.1,1.1,0,0,0-.31,0,1.53,1.53,0,0,0-.3,0,.86.86,0,0,0-.17,0L105.54,34a.05.05,0,0,0,0,0,1.43,1.43,0,0,0-.69.47L79.26,60,54.69,35.47h0l-8.37-8.37a1.51,1.51,0,0,0-2.14,0h0l-17.1,17.1a1.5,1.5,0,0,0,0,2.13h0l33,33L47.21,92.11h0l-4.26,4.27h0L30.56,108.76h0a3,3,0,0,0,0,4.27L37,119.44a3,3,0,0,0,2.13.89,3,3,0,0,0,2.14-.89L70.73,90l33,33a1.47,1.47,0,0,0,1.06.45,1.49,1.49,0,0,0,1.07-.45l17.1-17.1a1.5,1.5,0,0,0,0-2.13h0ZM56.81,99.58,50.4,93.17,80.32,63.24h0l24.12-24.12V44A1.5,1.5,0,0,0,106,45.48h4.94ZM112,35l3,3-1.48,4.47h-6V36.53Zm4-.25-.81-.81,1.22-.4ZM30.27,45.24l15-15,2,2-1.07,1.07a1.51,1.51,0,0,0,0,2.14h0a1.54,1.54,0,0,0,1.07.44,1.52,1.52,0,0,0,1.07-.44l1.07-1.07,2.14,2.14-3.21,3.21a1.5,1.5,0,0,0,0,2.13h0a1.49,1.49,0,0,0,1.07.45,1.51,1.51,0,0,0,1.07-.45l3.2-3.21,2.14,2.14-1.07,1.07a1.51,1.51,0,0,0,0,2.14h0a1.54,1.54,0,0,0,1.07.44A1.52,1.52,0,0,0,56.82,44l1.07-1.07L60,45.07l-3.21,3.21a1.5,1.5,0,0,0,0,2.13h0a1.49,1.49,0,0,0,1.07.45A1.47,1.47,0,0,0,59,50.41l3.21-3.2,2.14,2.13-1.07,1.07a1.51,1.51,0,0,0,0,2.14h0a1.52,1.52,0,0,0,2.14,0l1.07-1.07,2.13,2.14-3.2,3.2a1.51,1.51,0,0,0,0,2.14h0a1.46,1.46,0,0,0,1.06.44A1.44,1.44,0,0,0,67.5,59l3.21-3.21,2.14,2.14L71.77,59a1.5,1.5,0,0,0,0,2.13h0a1.54,1.54,0,0,0,1.07.44,1.52,1.52,0,0,0,1.07-.44L75,60l2.14,2.14-15,15Zm8.82,72.06-6.42-6.41h0l7-7,6.41,6.42Zm9.17-9.17-6.41-6.41L44,99.58a1.5,1.5,0,0,0,1.06.44,1.51,1.51,0,0,0,1.07-2.58h0l2.14-2.14,6.41,6.41-2.14,2.14a1.5,1.5,0,0,0-2.13,0h0a1.52,1.52,0,0,0,0,2.14h0Zm56.48,11.57L72.85,87.81l15-15L90,75l-1.07,1.07a1.51,1.51,0,0,0,0,2.13h0a1.49,1.49,0,0,0,2.13,0l1.07-1.06,2.14,2.13L91,82.47a1.51,1.51,0,0,0,0,2.14h0a1.54,1.54,0,0,0,1.07.44,1.52,1.52,0,0,0,1.07-.44l3.21-3.21,2.13,2.14-1.06,1.07a1.51,1.51,0,0,0,0,2.13h0a1.49,1.49,0,0,0,2.13,0l1.07-1.07,2.14,2.14L99.56,91a1.5,1.5,0,0,0,0,2.13h0a1.52,1.52,0,0,0,2.14,0L104.91,90,107,92.08,106,93.16a1.51,1.51,0,1,0,2.14,2.13l1.07-1.07,2.14,2.14-3.21,3.21a1.5,1.5,0,0,0,0,2.13h0a1.49,1.49,0,0,0,2.13,0l3.21-3.2,2.14,2.13-1.07,1.07a1.51,1.51,0,0,0,0,2.14h0a1.52,1.52,0,0,0,1.07.44,1.54,1.54,0,0,0,1.07-.44l1.07-1.07,2,2Z"/></svg>