<svg id="Layer_1" data-name="Layer 1" xmlns="http://www.w3.org/2000/svg" viewBox="0 0 150 150"><defs><style>.cls-1{fill:#006ad8;}</style></defs><title>imagenes e iconos</title><g id="Group_443" data-name="Group 443"><path id="Path_666" data-name="Path 666" class="cls-1" d="M92.69,46.17a1.53,1.53,0,0,0-1.59,2.61,27.53,27.53,0,0,1,13.35,23.71A1.53,1.53,0,0,0,106,74h0a1.54,1.54,0,0,0,1.53-1.53h0A30.78,30.78,0,0,0,92.69,46.17Z"/><path id="Path_667" data-name="Path 667" class="cls-1" d="M96.8,33.13a2.41,2.41,0,0,0,3.26,1,2.46,2.46,0,0,0,1-1,5.49,5.49,0,0,1,2.4-2.39,2.4,2.4,0,0,0,0-4.26,5.56,5.56,0,0,1-2.4-2.4,2.39,2.39,0,0,0-3.2-1,2.35,2.35,0,0,0-1,1,5.56,5.56,0,0,1-2.4,2.4,2.39,2.39,0,0,0-1,3.23,2.36,2.36,0,0,0,1,1A5.57,5.57,0,0,1,96.8,33.13Zm2.14-6.66a8.53,8.53,0,0,0,2.14,2.14,8.53,8.53,0,0,0-2.14,2.14,8.74,8.74,0,0,0-2.15-2.14,8.74,8.74,0,0,0,2.15-2.14Z"/><path id="Path_668" data-name="Path 668" class="cls-1" d="M34.87,97.11a5.56,5.56,0,0,1-2.4,2.4,2.4,2.4,0,0,0-1,3.24,2.51,2.51,0,0,0,1,1,5.54,5.54,0,0,1,2.4,2.39,2.41,2.41,0,0,0,3.26,1,2.46,2.46,0,0,0,1-1,5.57,5.57,0,0,1,2.39-2.39,2.4,2.4,0,0,0,1-3.24,2.45,2.45,0,0,0-1-1h0a5.51,5.51,0,0,1-2.4-2.4,2.39,2.39,0,0,0-3.21-1,2.33,2.33,0,0,0-1,1Zm4.27,4.54A8.53,8.53,0,0,0,37,103.79a8.74,8.74,0,0,0-2.15-2.14A8.92,8.92,0,0,0,37,99.51a8.66,8.66,0,0,0,2.14,2.13Z"/><path id="Path_669" data-name="Path 669" class="cls-1" d="M113.28,47.45a2.68,2.68,0,0,0,3.62,1.12A2.63,2.63,0,0,0,118,47.45a7.74,7.74,0,0,1,3.32-3.31,2.66,2.66,0,0,0,1.13-3.59,2.62,2.62,0,0,0-1.14-1.14A7.68,7.68,0,0,1,118,36.08a2.64,2.64,0,0,0-3.55-1.16,2.6,2.6,0,0,0-1.16,1.16A7.76,7.76,0,0,1,110,39.41,2.66,2.66,0,0,0,108.82,43,2.75,2.75,0,0,0,110,44.14,7.64,7.64,0,0,1,113.28,47.45Zm2.37-9.32a10.74,10.74,0,0,0,3.64,3.64,10.86,10.86,0,0,0-3.64,3.65A10.86,10.86,0,0,0,112,41.77,10.74,10.74,0,0,0,115.65,38.13Z"/><path id="Path_670" data-name="Path 670" class="cls-1" d="M31.12,82.21a1.53,1.53,0,0,0-1.53,1.53h0v.84h-.83a1.53,1.53,0,0,0-1.54,1.53h0a1.54,1.54,0,0,0,1.54,1.53h.83v.84A1.54,1.54,0,0,0,31.12,90h0a1.53,1.53,0,0,0,1.53-1.53h0v-.84h.84a1.53,1.53,0,0,0,0-3.06h-.84v-.84a1.52,1.52,0,0,0-1.53-1.53Z"/><path id="Path_671" data-name="Path 671" class="cls-1" d="M38.74,72.62a38,38,0,0,0,13.44,29,3.55,3.55,0,0,0-1.55,2.94v2.38a3.75,3.75,0,0,0-3.05,3.67v7.7a3.57,3.57,0,0,0-3.26,3.55v1.82a3.57,3.57,0,0,0,3.56,3.56H73.16a1.53,1.53,0,0,0,1.53-1.53h0a1.52,1.52,0,0,0-1.53-1.53H47.88a.5.5,0,0,1-.5-.5v-1.83a.5.5,0,0,1,.5-.5h57.71a.5.5,0,0,1,.5.5v1.83a.5.5,0,0,1-.5.5H80.3a1.53,1.53,0,0,0-1.53,1.53h0a1.54,1.54,0,0,0,1.53,1.53h25.29a3.57,3.57,0,0,0,3.55-3.56v-1.82a3.56,3.56,0,0,0-3.25-3.55v-7.7a3.76,3.76,0,0,0-3-3.67v-2.38a3.56,3.56,0,0,0-1.56-2.94A37.91,37.91,0,0,0,114.56,76.2a1.53,1.53,0,0,0-1.38-1.66h0a1.53,1.53,0,0,0-1.67,1.38A34.85,34.85,0,0,1,97.11,101H56.35a34.93,34.93,0,1,1,55.14-31.92,1.52,1.52,0,0,0,1.67,1.37h0a1.51,1.51,0,0,0,1.36-1.67,38,38,0,0,0-75.79,3.85Zm11.9,45.67V110.6a.68.68,0,0,1,.67-.67h50.85a.68.68,0,0,1,.67.67v7.69Zm48.65-14.24a.51.51,0,0,1,.5.5v2.32H53.69v-2.32a.5.5,0,0,1,.5-.5Z"/></g></svg>