<svg id="Layer_1" data-name="Layer 1" xmlns="http://www.w3.org/2000/svg" viewBox="0 0 150 150"><defs><style>.cls-1{fill:#006ad8;}</style></defs><title>imagenes e iconos</title><g id="Group_442" data-name="Group 442"><g id="Group_421" data-name="Group 421"><g id="Group_420" data-name="Group 420"><path id="Path_658" data-name="Path 658" class="cls-1" d="M37.16,27.7a9.46,9.46,0,1,0,9.46,9.46A9.48,9.48,0,0,0,37.16,27.7Zm0,15.77a6.31,6.31,0,1,1,6.31-6.31A6.3,6.3,0,0,1,37.16,43.47Z"/></g></g><g id="Group_423" data-name="Group 423"><g id="Group_422" data-name="Group 422"><path id="Path_659" data-name="Path 659" class="cls-1" d="M112.84,81.31a9.46,9.46,0,1,0,9.46,9.46A9.46,9.46,0,0,0,112.84,81.31Zm0,15.76a6.31,6.31,0,1,1,6.3-6.3,6.31,6.31,0,0,1-6.3,6.3Z"/></g></g><g id="Group_425" data-name="Group 425"><g id="Group_424" data-name="Group 424"><path id="Path_660" data-name="Path 660" class="cls-1" d="M112.84,103.38a9.46,9.46,0,1,0,9.46,9.46A9.47,9.47,0,0,0,112.84,103.38Zm0,15.76a6.31,6.31,0,1,1,6.3-6.3,6.31,6.31,0,0,1-6.3,6.3Z"/></g></g><g id="Group_427" data-name="Group 427"><g id="Group_426" data-name="Group 426"><path id="Path_661" data-name="Path 661" class="cls-1" d="M82.42,36.05l-4.73-4.73-2.23,2.23,2,2H49.78v3.16H77.5l-2,2L77.69,43l4.73-4.73a1.58,1.58,0,0,0,0-2.23Z"/></g></g><g id="Group_429" data-name="Group 429"><g id="Group_428" data-name="Group 428"><path id="Path_662" data-name="Path 662" class="cls-1" d="M95.5,62.39H67.77l2-2-2.23-2.23-4.73,4.73a1.58,1.58,0,0,0,0,2.23h0l4.73,4.73,2.23-2.23-2-2H95.5Z"/></g></g><g id="Group_431" data-name="Group 431"><g id="Group_430" data-name="Group 430"><path id="Path_663" data-name="Path 663" class="cls-1" d="M107.32,35.59H86v3.15h21.28a11.83,11.83,0,0,1,0,23.65H104l2-2-2.23-2.23-4.73,4.73a1.57,1.57,0,0,0,0,2.23h0l4.73,4.73,2.23-2.23-2-2h3.29a15,15,0,1,0,0-29.95Z"/></g></g><g id="Group_433" data-name="Group 433"><g id="Group_432" data-name="Group 432"><path id="Path_664" data-name="Path 664" class="cls-1" d="M99.76,89.65,95,84.92l-2.22,2.23,2,2H75v3.16H94.84l-2,2L95,96.61l4.73-4.73a1.57,1.57,0,0,0,0-2.22Z"/></g></g><g id="Group_435" data-name="Group 435"><g id="Group_434" data-name="Group 434"><path id="Path_665" data-name="Path 665" class="cls-1" d="M99.76,111.72,95,107l-2.22,2.23,2,2H68.69a9.46,9.46,0,0,1-9.45-9.46,12.62,12.62,0,0,0-4.3-9.46H66.46l-2,2,2.23,2.23,4.72-4.73a1.57,1.57,0,0,0,0-2.22h0l-4.72-4.73-2.23,2.23,2,2H42.68a11.83,11.83,0,0,1,0-23.65H59.23V62.39H42.68a15,15,0,0,0,0,30h3.94a9.45,9.45,0,0,1,9.46,9.46,12.63,12.63,0,0,0,12.61,12.61H94.84l-2,2L95,118.69,99.76,114a1.58,1.58,0,0,0,0-2.23Z"/></g></g><g id="Group_437" data-name="Group 437"><g id="Group_436" data-name="Group 436"><rect id="Rectangle_161" data-name="Rectangle 161" class="cls-1" x="48.2" y="103.38" width="3.15" height="3.15"/></g></g><g id="Group_439" data-name="Group 439"><g id="Group_438" data-name="Group 438"><rect id="Rectangle_162" data-name="Rectangle 162" class="cls-1" x="41.89" y="103.38" width="3.15" height="3.15"/></g></g><g id="Group_441" data-name="Group 441"><g id="Group_440" data-name="Group 440"><rect id="Rectangle_163" data-name="Rectangle 163" class="cls-1" x="35.59" y="103.38" width="3.15" height="3.15"/></g></g></g></svg>