<svg id="Layer_1" data-name="Layer 1" xmlns="http://www.w3.org/2000/svg" viewBox="0 0 150 150"><defs><style>.cls-1{fill:#006ad8;stroke:#fff;stroke-miterlimit:10;stroke-width:0.36px;}</style></defs><title>imagenes e iconos</title><g id="Group_418" data-name="Group 418"><g id="Group_417" data-name="Group 417"><path id="Path_654" data-name="Path 654" class="cls-1" d="M124.42,74.08H111.74V41a9.19,9.19,0,0,0-9.19-9.18H47.43A9.18,9.18,0,0,0,38.25,41V52H28.17a8.3,8.3,0,0,0-8.3,8.29v49.56a8.31,8.31,0,0,0,8.3,8.3H57.51a8.28,8.28,0,0,0,7.78-5.51H97a1.84,1.84,0,0,0,1.84-1.84h0v-3.67a5.51,5.51,0,0,0-5.51-5.52H87.86V94.29h14.7v18.19a5.7,5.7,0,0,0,5.7,5.7h16.17a5.7,5.7,0,0,0,5.7-5.7h0V79.77a5.7,5.7,0,0,0-5.71-5.69Zm-62.29,35.8a4.63,4.63,0,0,1-4.62,4.62H28.16a4.63,4.63,0,0,1-4.62-4.62V109H62.13v.9Zm0-4.57H23.55V64.89H62.13Zm0-44.1H23.55v-.89a4.62,4.62,0,0,1,4.62-4.62H57.51a4.62,4.62,0,0,1,4.62,4.62v.89Zm31.24,44.1a1.85,1.85,0,0,1,1.84,1.84h0V109H65.8v-3.67Zm-27.56-3.68V94.28H84.18v7.35Zm36.75-11H65.81V85.1h36.75Zm0-10.84v1.65H65.81V60.32A8.3,8.3,0,0,0,57.51,52H41.92V41a5.51,5.51,0,0,1,5.51-5.51h55.13A5.51,5.51,0,0,1,108.07,41h0V74.09a5.72,5.72,0,0,0-5.52,5.68Zm23.88,32.71a2,2,0,0,1-2,2H108.25a2,2,0,0,1-2-2v-1.66h20.21Zm0-5.33H106.23V85.1h20.21Zm0-25.73H106.23V79.77a2,2,0,0,1,2-2h16.17a2,2,0,0,1,2,2Z"/></g></g></svg>